# xmcd CD database file
#
# Track frame offsets:
#	150
#	5991
#	40102
#	60991
#	97737
#	120835
#	145195
#	171517
#	198061
#	220279
#	247975
#	266268
#	280050
#	301087
#	318251
#
# Disc length: 4438 seconds
#
# Revision: 0
# Processed by: cddbd v1.5.1PL0 Copyright (c) Steve Scherf et al.
# Submitted via: CDex 1.51
#
DISCID=bf11540f
DTITLE=Bill Evans - 75th Birthday Celebration Disc 1 - 1956-1969 - Spring Is Here
DYEAR=2004
DGENRE=Jazz
TTITLE0=Waltz for Debby
TTITLE1=Night and Day
TTITLE2=A Little Taste
TTITLE3=On Green Dolphin Street
TTITLE4=Spring Is Here
TTITLE5=Autumn Leaves
TTITLE6=Elsa
TTITLE7=Sweet and Lovely
TTITLE8=My Foolish Heart
TTITLE9=Gloria's Step
TTITLE10=Jade Visions
TTITLE11=When I Fall In Love
TTITLE12=Isn't It Romantic
TTITLE13=I Should Care
TTITLE14=California, Here I Come
EXTD=YEAR: 2004
EXTT0=
EXTT1=
EXTT2=
EXTT3=
EXTT4=
EXTT5=
EXTT6=
EXTT7=
EXTT8=
EXTT9=
EXTT10=
EXTT11=
EXTT12=
EXTT13=
EXTT14=
PLAYORDER=
